# xmcd
#
# Track frame offsets:
#   182
#   20882
#   36617
#   48565
#   65400
#   80315
#   91497
#   124912
#   141200
#   154897
#   174227
#   184970
#   200000
#   215725
#   232745
#   249307
#   268545
#   284967
#
# Disc length: 4023 seconds
#
# Revision: 0
# Processed by: cddbd v1.5.2PL0 Copyright (c) Steve Scherf et al.
# Submitted via: uFREEDB ActiveX Control 1.5
#
DISCID=170fb512
DTITLE=Grupo Quero-quero - Lá vem o Rio Grande a cavalo
DYEAR=1900
DGENRE=Alternative
TTITLE0=Entrando no bororé
TTITLE1=Os bonitão
TTITLE2=Bom demais
TTITLE3=à meia rédea
TTITLE4=O cosa feia
TTITLE5=Vanerão do pica-pau
TTITLE6=Pout-porry Os homens de preto - Chimarrita - A xul
TTITLE7=Descampada
TTITLE8=Xote chucro
TTITLE9=A fama do boi
TTITLE10=Rancho da costela
TTITLE11=Um grito gaúcho
TTITLE12=No tranco do vanerão
TTITLE13=Alerta
TTITLE14=Sogra gaudéria
TTITLE15=Baile do Quero-quero
TTITLE16=Guardião das Estâncias
TTITLE17=Marca Diabo
EXTD=
EXTT0=
EXTT1=
EXTT2=
EXTT3=
EXTT4=
EXTT5=
EXTT6=
EXTT7=
EXTT8=
EXTT9=
EXTT10=
EXTT11=
EXTT12=
EXTT13=
EXTT14=
EXTT15=
EXTT16=
EXTT17=
PLAYORDER=
